<svg width="512" height="512" xmlns="http://www.w3.org/2000/svg" xml:space="preserve" version="1.1">

 <g>
  <title>Layer 1</title>
  <circle id="svg_2" fill="#3f6212" r="176.556" cy="256.997" cx="254.437"/>
  <path id="svg_3" fill="#7f7f7f" d="m467.995,79.439l0,193.221c20.08,0 36.356,-16.277 36.356,-36.356l0,-120.508c0.001,-20.08 -16.276,-36.357 -36.356,-36.357z"/>
  <path id="svg_5" fill="#000000" d="m256,71.791c-101.573,0 -184.209,82.636 -184.209,184.209s82.636,184.209 184.209,184.209s184.209,-82.636 184.209,-184.209s-82.636,-184.209 -184.209,-184.209zm0,353.121c-93.138,0 -168.912,-75.774 -168.912,-168.912s75.774,-168.912 168.912,-168.912s168.912,75.774 168.912,168.912s-75.773,168.912 -168.912,168.912z"/>
  <path id="svg_7" fill="#000000" d="m75.637,142.575l0,-63.136l-15.297,0l0,63.136c0,11.323 -5.435,18.969 -14.873,21.549l0,-84.685l-15.297,0l0,84.684c-9.437,-2.58 -14.874,-10.226 -14.874,-21.548l0,-63.136l-15.296,0l0,63.136c0,19.963 11.841,34.137 30.169,37.195l0,245.32l15.297,0l0,-245.32c18.33,-3.057 30.171,-17.232 30.171,-37.195z"/>
  <path id="svg_8" fill="#000000" d="m467.995,71.791l-7.648,0l0,7.648l0,200.869l0,144.78l15.297,0l0,-145.459c20.629,-3.631 36.356,-21.671 36.356,-43.325l0,-120.508c0,-24.265 -19.74,-44.005 -44.005,-44.005zm28.708,164.513c0,13.183 -8.93,24.318 -21.06,27.674l0,-175.856c12.129,3.356 21.06,14.491 21.06,27.674l0,120.508z"/>
  <g id="svg_9"/>
  <g id="svg_10"/>
  <g id="svg_11"/>
  <g id="svg_12"/>
  <g id="svg_13"/>
  <g id="svg_14"/>
  <g id="svg_15"/>
  <g id="svg_16"/>
  <g id="svg_17"/>
  <g id="svg_18"/>
  <g id="svg_19"/>
  <g id="svg_20"/>
  <g id="svg_21"/>
  <g id="svg_22"/>
  <g id="svg_23"/>
  <ellipse stroke="#000000" stroke-width="15" ry="135" rx="135" id="svg_27" cy="256" cx="256" fill="#4d7c0f"/>
  <ellipse stroke="#000000" stroke-width="15" ry="25" rx="25" id="svg_28" cy="296" cx="216" fill="#ffffff"/>
  <ellipse stroke="#000000" stroke-width="15" ry="25" rx="25" id="svg_29" cy="296" cx="296" fill="#ffffff"/>
  <ellipse stroke="#000000" stroke-width="15" ry="25" rx="25" id="svg_32" cy="216" cx="216" fill="#ffffff"/>
  <ellipse stroke="#000000" stroke-width="15" ry="25" rx="25" id="svg_33" cy="216" cx="296" fill="#ffffff"/>
  <path transform="rotate(45, 256, 256)" id="svg_35" d="m219.37459,239.9996l73.25,0l0,0c9.59596,0 17.375,7.16345 17.375,16c0,8.83655 -7.77905,16 -17.375,16l-73.25,0l0,0c-9.59595,0 -17.375,-7.16344 -17.375,-16c0,-8.83656 7.77905,-16 17.375,-16z" stroke-width="10" stroke="#000000" fill="#0c4a6e"/>
  <path transform="rotate(-45, 256, 256)" id="svg_36" d="m219.37459,239.9996l73.25,0l0,0c9.59596,0 17.375,7.16345 17.375,16c0,8.83655 -7.77905,16 -17.375,16l-73.25,0l0,0c-9.59595,0 -17.375,-7.16344 -17.375,-16c0,-8.83656 7.77905,-16 17.375,-16z" stroke-width="10" stroke="#000000" fill="#0c4a6e"/>
 </g>
</svg>