<svg width="512" height="512" xmlns="http://www.w3.org/2000/svg" xml:space="preserve" version="1.1">
<defs>
    <mask id="holes">
        <rect x="0" y="0" width="512" height="512" fill="white" />
        <circle r="25" cy="296" cx="216" fill="black"/>
        <circle r="25" cy="296" cx="296" fill="black"/>
        <circle r="25" cy="216" cx="216" fill="black"/>
        <circle r="25" cy="216" cx="296" fill="black"/>
    </mask>
</defs>
    <g>
        <path id="blade" fill="#7f7f7f" d="m467.995,79.439l0,193.221c20.08,0 36.356,-16.277 36.356,-36.356l0,-120.508c0.001,-20.08 -16.276,-36.357 -36.356,-36.357z"/>
        <path id="knife" fill="#000000" d="m467.995,71.791l-7.648,0l0,7.648l0,200.869l0,144.78l15.297,0l0,-145.459c20.629,-3.631 36.356,-21.671 36.356,-43.325l0,-120.508c0,-24.265 -19.74,-44.005 -44.005,-44.005zm28.708,164.513c0,13.183 -8.93,24.318 -21.06,27.674l0,-175.856c12.129,3.356 21.06,14.491 21.06,27.674l0,120.508z"/>
        <path id="fork" fill="#000000" d="m75.637,142.575l0,-63.136l-15.297,0l0,63.136c0,11.323 -5.435,18.969 -14.873,21.549l0,-84.685l-15.297,0l0,84.684c-9.437,-2.58 -14.874,-10.226 -14.874,-21.548l0,-63.136l-15.296,0l0,63.136c0,19.963 11.841,34.137 30.169,37.195l0,245.32l15.297,0l0,-245.32c18.33,-3.057 30.171,-17.232 30.171,-37.195z"/>
        <circle id="outer" stroke="#000000" stroke-width="15" r="175" cy="256" cx="256" fill="#3f6212" mask="url(#holes)"/>
        <circle id="inner" stroke="#000000" stroke-width="15" r="135" cy="256" cx="256" fill="#4d7c0f" mask="url(#holes)"/>
        <circle id="hole1" stroke="#000000" stroke-width="15" r="25" cy="296" cx="216" fill-opacity="0"/>
        <circle id="hole2" stroke="#000000" stroke-width="15" r="25" cy="296" cx="296" fill-opacity="0"/>
        <circle id="hole3" stroke="#000000" stroke-width="15" r="25" cy="216" cx="216" fill-opacity="0"/>
        <circle id="hole4" stroke="#000000" stroke-width="15" r="25" cy="216" cx="296" fill-opacity="0"/>
        <path id="thread1" transform="rotate(45, 256, 256)" d="m219.37459,239.9996l73.25,0l0,0c9.59596,0 17.375,7.16345 17.375,16c0,8.83655 -7.77905,16 -17.375,16l-73.25,0l0,0c-9.59595,0 -17.375,-7.16344 -17.375,-16c0,-8.83656 7.77905,-16 17.375,-16z" stroke-width="10" stroke="#000000" fill="#0c4a6e"/>
        <path id="thread2" transform="rotate(-45, 256, 256)" d="m219.37459,239.9996l73.25,0l0,0c9.59596,0 17.375,7.16345 17.375,16c0,8.83655 -7.77905,16 -17.375,16l-73.25,0l0,0c-9.59595,0 -17.375,-7.16344 -17.375,-16c0,-8.83656 7.77905,-16 17.375,-16z" stroke-width="10" stroke="#000000" fill="#0c4a6e"/>
    </g>
</svg>