<?xml version="1.0" standalone="no"?>
<!DOCTYPE svg PUBLIC "-//W3C//DTD SVG 20010904//EN"
 "http://www.w3.org/TR/2001/REC-SVG-20010904/DTD/svg10.dtd">
<svg version="1.0" xmlns="http://www.w3.org/2000/svg"
 width="700.000000pt" height="700.000000pt" viewBox="0 0 700.000000 700.000000"
 preserveAspectRatio="xMidYMid meet">
<metadata>
Created by potrace 1.14, written by Peter Selinger 2001-2017
</metadata>
<g transform="translate(0.000000,700.000000) scale(0.100000,-0.100000)"
fill="#000000" stroke="none">
<path d="M3334 6010 c-340 -24 -649 -109 -954 -261 -504 -252 -884 -635 -1135
-1144 -128 -258 -202 -503 -240 -790 -22 -159 -22 -471 0 -630 75 -563 320
-1061 719 -1461 480 -479 1101 -736 1776 -736 676 0 1296 257 1776 736 399
400 644 898 719 1461 10 75 16 193 16 315 0 122 -6 240 -16 315 -75 563 -320
1061 -719 1461 -214 213 -417 357 -698 495 -368 179 -832 268 -1244 239z m361
-211 c538 -46 1052 -285 1435 -669 363 -363 577 -797 661 -1345 17 -107 17
-457 0 -570 -78 -534 -299 -983 -661 -1345 -362 -363 -809 -583 -1345 -661
-113 -17 -463 -17 -570 0 -462 71 -840 233 -1172 502 -573 464 -900 1215 -845
1943 62 833 544 1550 1286 1916 374 184 798 265 1211 229z"/>
<path d="M3300 5439 c-417 -42 -826 -230 -1137 -523 -551 -519 -751 -1317
-510 -2038 281 -839 1118 -1393 1994 -1320 390 33 729 162 1036 394 105 79
286 260 365 365 533 706 533 1658 0 2366 -86 115 -264 290 -385 380 -395 292
-877 425 -1363 376z m534 -228 c703 -142 1235 -675 1378 -1383 20 -97 23 -143
23 -328 0 -185 -3 -231 -23 -328 -144 -710 -674 -1240 -1384 -1384 -97 -20
-143 -23 -328 -23 -185 0 -231 3 -328 23 -630 128 -1131 568 -1328 1169 -63
193 -79 302 -79 543 0 185 3 231 23 328 42 207 120 412 219 572 279 452 712
740 1238 825 137 22 447 14 589 -14z"/>
<path d="M2830 4471 c-85 -27 -134 -56 -190 -112 -177 -177 -172 -464 11 -633
84 -78 203 -126 314 -126 24 0 42 -11 80 -50 l49 -50 -49 -50 c-38 -39 -56
-50 -80 -50 -111 0 -230 -48 -314 -126 -183 -169 -188 -456 -11 -634 166 -165
438 -173 607 -17 88 81 138 183 149 306 6 66 9 71 55 117 l49 48 50 -49 c39
-38 50 -56 50 -80 0 -203 143 -390 335 -440 327 -84 625 213 540 540 -23 85
-61 149 -127 210 -85 79 -200 125 -313 125 -24 0 -42 11 -80 50 l-49 50 48 49
c45 46 51 49 114 54 138 13 242 68 328 174 136 167 120 426 -36 582 -180 180
-467 172 -640 -17 -74 -80 -120 -197 -120 -307 0 -24 -11 -42 -50 -80 l-50
-49 -50 49 c-39 38 -50 56 -50 80 0 57 -21 147 -48 203 -33 70 -116 160 -179
195 -105 57 -239 72 -343 38z m199 -196 c52 -18 101 -55 123 -93 l17 -29 -59
-6 c-147 -16 -241 -111 -257 -259 l-6 -57 -29 17 c-67 39 -115 140 -105 222
19 157 171 256 316 205z m1127 -13 c74 -38 121 -107 131 -192 10 -82 -38 -183
-105 -222 l-29 -17 -6 57 c-16 148 -110 243 -257 259 l-59 6 17 30 c55 95 203
133 308 79z m-963 -266 c18 -8 71 -54 119 -103 l88 -88 -103 -103 -102 -102
-92 92 c-95 96 -113 125 -113 184 0 102 104 163 203 120z m755 -6 c53 -33 76
-111 52 -177 -14 -37 -766 -791 -807 -809 -124 -54 -240 56 -193 183 14 35
765 790 805 809 44 20 105 17 143 -6z m57 -823 c22 -115 -57 -194 -172 -172
-30 5 -59 27 -136 103 l-97 96 102 103 103 104 97 -98 c76 -78 98 -106 103
-136z m-1124 -162 c40 -86 124 -141 231 -152 l57 -6 -17 -29 c-39 -67 -140
-115 -222 -105 -128 15 -214 110 -215 237 0 83 31 149 89 192 l41 30 8 -62 c4
-34 17 -81 28 -105z m1355 97 c117 -152 25 -366 -166 -389 -82 -10 -183 38
-222 105 l-17 29 57 6 c148 16 243 110 259 257 l6 59 29 -17 c16 -9 41 -32 54
-50z"/>
<path d="M6300 3607 l0 -2417 100 0 100 0 0 994 0 994 48 11 c187 47 350 200
419 396 l28 80 0 925 c0 870 -1 929 -18 985 -40 129 -114 237 -212 312 -110
84 -209 119 -367 129 l-98 7 0 -2416z m288 2152 c73 -42 130 -102 166 -179
l31 -65 3 -899 c3 -998 5 -959 -63 -1062 -47 -72 -128 -136 -202 -158 l-23 -7
0 1200 c0 1137 1 1201 18 1201 9 0 41 -14 70 -31z"/>
<path d="M3 5428 c4 -530 4 -527 67 -647 56 -104 164 -188 284 -221 l61 -17 3
-1677 2 -1676 100 0 100 0 0 1679 0 1678 38 7 c20 3 69 21 108 40 84 40 158
111 202 194 59 110 62 139 62 655 l0 467 -100 0 -99 0 -3 -472 c-3 -427 -5
-478 -22 -520 -22 -58 -83 -123 -139 -148 l-42 -19 -3 579 -2 580 -100 0 -100
0 0 -575 c0 -640 6 -594 -69 -555 -22 10 -55 38 -74 61 -67 77 -67 80 -67 601
l0 468 -106 0 -105 0 4 -482z"/>
</g>
</svg>
